<svg width="1024" height="1024" viewBox="0 0 1024 1024" fill="none" xmlns="http://www.w3.org/2000/svg">
<rect width="1024" height="1024" fill="white"/>
<path d="M353 395.727H398.455V441.182H353V395.727ZM353 441.182H398.455V486.636H353V441.182ZM353 486.636H398.455V532.091H353V486.636ZM353 532.091H398.455V577.545H353V532.091ZM353 577.545H398.455V623H353V577.545ZM443.909 395.727H489.364V441.182H443.909V395.727ZM443.909 441.182H489.364V486.636H443.909V441.182ZM398.455 486.636H443.909V532.091H398.455V486.636ZM443.909 532.091H489.364V577.545H443.909V532.091ZM443.909 577.545H489.364V623H443.909V577.545Z" fill="black"/>
<path d="M535 395.727H580.455V441.182H535V395.727ZM535 441.182H580.455V486.636H535V441.182ZM535 486.636H580.455V532.091H535V486.636ZM535 532.091H580.455V577.545H535V532.091ZM580.455 577.545H625.909V623H580.455V577.545ZM625.909 532.091H671.364V577.545H625.909V532.091ZM625.909 486.636H671.364V532.091H625.909V486.636ZM625.909 441.182H671.364V486.636H625.909V441.182ZM625.909 395.727H671.364V441.182H625.909V395.727Z" fill="black"/>
</svg>
